<?xml version="1.0" encoding="UTF-8"?> <svg xmlns="http://www.w3.org/2000/svg" width="152" height="125" viewBox="0 0 152 125" fill="none"><path d="M65.5646 44.4173C68.4556 47.3149 72.3033 48.9052 76.4005 48.9052C80.4976 48.9052 84.3386 47.3082 87.2363 44.4173L95.5249 36.1286C96.8255 34.828 97.5398 33.103 97.5398 31.2633C97.5398 29.4236 96.8255 27.6985 95.5249 26.3979L82.7551 13.6281C79.251 10.124 73.5567 10.124 70.0526 13.6281L57.2827 26.3979C54.6007 29.0799 54.6007 33.4466 57.2827 36.1286L65.5714 44.4173H65.5646Z" fill="#FF4200"></path><path d="M66.198 75.402H86.6096C92.2297 75.402 97.6206 73.1715 101.59 69.1957L120.02 50.7653L110.525 41.2705C109.656 40.4012 108.477 39.916 107.25 39.916C106.024 39.916 104.845 40.4012 103.975 41.2705L85.5651 59.6941L85.4641 59.7682C80.1203 63.8856 72.6605 63.8788 67.3234 59.7615L48.92 41.1896C48.0574 40.3136 46.8781 39.8284 45.645 39.8284H45.6315C44.405 39.8284 43.2258 40.3136 42.3565 41.1829L32.774 50.7653L51.2044 69.1957C55.1802 73.1715 60.5712 75.402 66.1845 75.402H66.198Z" fill="#FF4200"></path><path d="M138.74 69.5594L135.883 66.7021C135.768 66.5539 135.661 66.3989 135.526 66.2641L129.306 60.0443C127.5 58.2383 124.562 58.2383 122.756 60.0443L85.4909 97.3228C80.1471 101.46 72.6874 101.467 67.3032 97.3228L30.1527 59.9634C29.2766 59.0874 28.1108 58.6022 26.8777 58.5955H26.8709C25.631 58.5955 24.4719 59.0739 23.5959 59.9499L22.5784 60.9675V60.954L14 69.5256L17.2615 72.7872C17.2615 72.7872 17.275 72.8006 17.2817 72.8141L51.2179 106.75C55.2207 110.753 60.5442 112.957 66.198 112.957H86.6096C92.2701 112.957 97.5937 110.753 101.59 106.75L135.526 72.8141C135.6 72.74 135.647 72.6592 135.715 72.585L138.74 69.5594Z" fill="#FF4200"></path><path d="M127.062 107.559C127.062 108.395 126.914 109.163 126.624 109.85C126.328 110.538 125.93 111.124 125.425 111.616C124.919 112.108 124.34 112.485 123.673 112.755C123.005 113.024 122.311 113.159 121.584 113.159C120.775 113.159 120.034 113.018 119.36 112.735C118.686 112.451 118.106 112.061 117.621 111.562C117.136 111.063 116.759 110.47 116.482 109.79C116.206 109.109 116.071 108.368 116.071 107.566C116.071 106.73 116.22 105.962 116.516 105.275C116.813 104.587 117.21 103.994 117.716 103.509C118.221 103.024 118.807 102.64 119.474 102.37C120.142 102.101 120.849 101.966 121.584 101.966C122.318 101.966 123.005 102.101 123.673 102.37C124.333 102.64 124.919 103.017 125.425 103.509C125.93 104.001 126.328 104.587 126.624 105.275C126.921 105.962 127.062 106.724 127.062 107.566V107.559ZM125.863 107.559C125.863 106.879 125.755 106.259 125.532 105.686C125.31 105.12 125.007 104.628 124.623 104.217C124.232 103.806 123.78 103.489 123.262 103.267C122.743 103.044 122.183 102.93 121.584 102.93C120.984 102.93 120.411 103.044 119.885 103.267C119.36 103.489 118.902 103.806 118.517 104.217C118.127 104.628 117.823 105.113 117.608 105.686C117.385 106.252 117.278 106.879 117.278 107.559C117.278 108.199 117.379 108.799 117.574 109.358C117.776 109.918 118.059 110.403 118.437 110.827C118.814 111.245 119.265 111.575 119.791 111.825C120.317 112.074 120.916 112.189 121.59 112.189C122.19 112.189 122.749 112.074 123.268 111.852C123.787 111.629 124.239 111.313 124.629 110.902C125.02 110.491 125.324 110.005 125.539 109.439C125.755 108.873 125.869 108.247 125.869 107.559H125.863ZM124.407 108.637C124.346 108.995 124.239 109.318 124.07 109.601C123.902 109.884 123.706 110.127 123.477 110.329C123.248 110.531 122.985 110.679 122.689 110.787C122.392 110.895 122.082 110.942 121.752 110.942C121.274 110.942 120.842 110.854 120.451 110.686C120.061 110.517 119.73 110.282 119.447 109.972C119.171 109.668 118.955 109.311 118.8 108.893C118.652 108.482 118.578 108.031 118.578 107.552C118.578 107.101 118.652 106.683 118.794 106.286C118.935 105.888 119.144 105.551 119.414 105.268C119.683 104.985 120.013 104.756 120.404 104.587C120.795 104.419 121.233 104.331 121.718 104.331C122.406 104.331 122.999 104.52 123.491 104.904C123.983 105.288 124.279 105.848 124.38 106.589H123.363C123.282 106.211 123.093 105.901 122.803 105.659C122.513 105.416 122.15 105.302 121.718 105.302C121.402 105.302 121.119 105.362 120.883 105.484C120.64 105.605 120.445 105.76 120.276 105.962C120.115 106.164 119.987 106.4 119.906 106.67C119.818 106.946 119.778 107.236 119.778 107.546C119.778 107.876 119.825 108.186 119.912 108.476C120 108.765 120.135 109.021 120.31 109.237C120.485 109.459 120.694 109.635 120.937 109.763C121.179 109.891 121.456 109.958 121.752 109.958C122.204 109.958 122.567 109.837 122.857 109.581C123.147 109.331 123.315 109.015 123.369 108.624H124.4L124.407 108.637Z" fill="#FF4200"></path></svg> 